<?xml version="1.0" encoding="utf-8"?>
<!DOCTYPE svg PUBLIC "-//W3C//DTD SVG 20010904//EN" "http://www.w3.org/TR/2001/REC-SVG-20010904/DTD/svg10.dtd">
<svg version="1.0" xmlns="http://www.w3.org/2000/svg" width="421px" height="278px" viewBox="0 0 421 278" preserveAspectRatio="xMidYMid meet">
 <g fill="#000000">
  <path d="M301.25 276 c-3.90 -1.75 -5.75 -4.70 -5.75 -9.20 0 -2.90 1.15 -5.15 5 -9.55 1.20 -1.35 3.05 -4.40 4.10 -6.70 1.85 -3.90 1.95 -4.50 2.05 -9.25 0.10 -4.75 0 -5.20 -1.35 -7.70 -2.50 -4.50 -16.45 -16.30 -24.05 -20.30 -1.35 -0.70 -3.05 -1.70 -3.75 -2.15 -0.70 -0.50 0.45 0.95 2.60 3.25 4.10 4.50 6.35 8.90 5.65 11.20 -0.55 1.75 -2.80 4.10 -9.35 10 -3.30 2.90 -6.70 6.15 -7.55 7.25 -0.80 1.05 -3.25 3.70 -5.35 5.90 -2.10 2.20 -4.95 5.60 -6.30 7.50 -1.30 1.95 -4 5.10 -5.95 7.05 -4.90 4.90 -7.10 5.70 -15.55 5.70 -3.45 0 -6.65 -0.20 -7.15 -0.45 -0.50 -0.30 -1.40 -2.05 -2.05 -3.95 -1.10 -3.25 -1.15 -3.65 -0.50 -5.65 0.95 -2.90 3.45 -5.90 9.25 -11.20 2.70 -2.55 5.90 -6.05 7.20 -8 1.30 -1.90 3.65 -5.40 5.25 -7.70 3.20 -4.75 5 -8.95 4.95 -11.65 -0.05 -2 -1.40 -5 -4.95 -11 -2.50 -4.25 -8.10 -9.75 -15.45 -15.20 -2.20 -1.60 -5.15 -3.85 -6.50 -4.95 -1.40 -1.15 -3.90 -2.50 -5.50 -3.10 -15.25 -5.30 -16.40 -5.60 -25.50 -6.20 -4.10 -0.25 -7.70 -0.50 -8 -0.50 -2.95 0 -23.05 1.15 -26.40 1.55 -2.40 0.30 -5.50 0.40 -6.80 0.20 -1.35 -0.15 -3.95 -0.05 -5.85 0.20 -1.90 0.30 -4.65 0.70 -6.10 0.90 -2.70 0.30 -2.70 0.30 -0.15 2 3.10 2.10 6.45 6.75 8.80 12.20 1 2.30 3 6.40 4.50 9.20 1.45 2.80 3.05 6.05 3.50 7.30 2.50 6.60 5.15 12.80 7.50 17.50 1.40 2.90 3 6.65 3.45 8.40 0.80 2.95 0.80 3.30 0 5.75 -1.50 4.60 -3.95 9.05 -11.05 20.05 -6.10 9.40 -10.95 11.75 -16.80 8 -2.80 -1.75 -3.85 -3.50 -3.85 -6.40 0 -2.75 1.15 -5.25 4.15 -8.95 4.35 -5.30 7.85 -12.30 7.85 -15.70 0 -0.50 -0.45 -2.15 -1.05 -3.65 -0.85 -2.25 -2.25 -4 -7.90 -9.75 -4.75 -4.85 -7.90 -8.60 -10.25 -12.20 -3.15 -4.80 -11.85 -15.05 -12.80 -15.05 -0.20 0 -0.40 0.50 -0.40 1.15 0.05 1.25 -1.55 5.15 -5.30 13.35 -1.50 3.15 -3.20 7 -3.80 8.50 -1.70 4.35 -3.95 9 -5.75 12 -0.90 1.50 -4.10 7.55 -7.05 13.40 -3.25 6.50 -5.90 11.05 -6.65 11.65 -4.35 3.35 -11.60 7.50 -13.85 7.90 -1.40 0.30 -3.95 1.05 -5.75 1.70 -1.75 0.65 -4.45 1.50 -5.95 1.80 -1.50 0.35 -3.95 1 -5.40 1.40 -2.40 0.70 -2.70 0.70 -3.25 0 -0.35 -0.40 -1.05 -0.85 -1.60 -0.95 -2.10 -0.35 -2.80 -3.80 -2 -9.90 0.60 -4.55 2.05 -6.20 8.75 -9.60 8.95 -4.55 12.25 -7 14.50 -10.90 1.05 -1.80 2.05 -4.05 2.25 -5 0.20 -0.95 1.70 -5.55 3.35 -10.25 1.65 -4.65 3.55 -10.05 4.15 -12 0.65 -1.90 1.95 -5.75 2.95 -8.50 2.20 -6.15 2.35 -8.55 0.55 -9.25 -0.75 -0.30 -1.25 -0.85 -1.25 -1.45 0 -3.40 -10.40 -20.50 -14.90 -24.55 -3.45 -3.10 -8.90 -5.80 -12.55 -6.20 -1.45 -0.15 -2.95 -0.50 -3.35 -0.85 -0.95 -0.80 -12.35 -0.85 -18.95 -0.05 -3 0.35 -7.85 1.35 -10.75 2.15 -7.90 2.20 -7.85 2.20 -12.90 -2.65 -5.30 -5.10 -5.70 -5.60 -8.95 -10.60 -3.25 -4.95 -3.30 -6.10 -0.65 -8.25 2.80 -2.20 4.30 -4.70 5.75 -9.30 1.45 -4.55 1.60 -6 0.50 -5.55 -0.60 0.20 -0.75 -0.30 -0.75 -3.20 0 -1.90 -0.20 -4 -0.45 -4.70 -0.90 -2.30 2.95 -6.45 13.20 -14.15 8.25 -6.25 8 -5.60 7.30 -19.40 -0.30 -5.50 -0.55 -10.40 -0.55 -10.90 0 -0.70 -0.25 -0.85 -1 -0.60 -2.45 0.80 -0.30 -1.95 2.40 -3.10 2 -0.85 3.85 -0.55 7.25 1.20 3 1.50 10.75 7.95 15.40 12.90 2.95 3.05 3.85 3.75 5.10 3.75 0.85 0 3.10 0.55 5.05 1.20 1.95 0.70 5.45 1.50 7.80 1.80 2.35 0.35 6.20 1.25 8.55 2.05 2.40 0.80 5.10 1.45 6 1.45 0.95 0 2.80 0.35 4.15 0.75 4.50 1.35 8.10 1 20.30 -2.05 2.60 -0.65 6.10 -1.40 7.75 -1.65 8.10 -1.20 16.20 -2.60 18 -3.10 3.05 -0.80 13.10 -1.55 38.50 -2.90 4.95 -0.30 17.55 -0.50 28.05 -0.55 21.45 -0.05 23.30 0.15 31.65 3.50 6.45 2.55 9.80 3.50 12.35 3.50 1.15 0 3.20 0.25 4.55 0.55 1.95 0.45 3.20 0.40 6.35 -0.25 2.15 -0.45 4.75 -0.80 5.80 -0.80 2.05 0 9.15 -2.30 9.40 -3.05 0.20 -0.45 5.80 -7.15 8.55 -10.20 0.70 -0.80 1.85 -1.90 2.45 -2.35 0.60 -0.50 1.10 -1.45 1.10 -2.10 0 -0.80 0.90 -2.15 2.65 -3.90 3.55 -3.60 11.20 -10.40 11.70 -10.40 0.50 0 6.80 -4.70 10.40 -7.75 3.60 -3.05 5.90 -4.35 11.25 -6.45 5.65 -2.25 8 -3.40 10.55 -5.30 2.60 -1.85 15.30 -7.20 22.65 -9.50 8.20 -2.55 12.70 -4.30 14.85 -5.75 1 -0.65 2.70 -1.55 3.75 -2 2.60 -1.10 4.50 -3 6 -6 1.65 -3.30 4.10 -5.75 8.95 -9 4.60 -3.05 5.95 -3.65 13.70 -6.30 6.65 -2.30 9.85 -2.50 13.55 -0.90 2.20 0.95 2.65 1.40 4 4.15 1.75 3.65 1.85 4.70 0.50 7.30 -2.80 5.50 -7.35 10.25 -13.50 14.25 -11 7.05 -17.05 11.50 -23 16.75 -3.15 2.85 -6.70 5.55 -7.90 6.05 -2.20 0.95 -9.45 3.05 -14.60 4.20 -1.50 0.35 -4.10 1 -5.75 1.50 -3.60 1 -28.70 13.30 -33.20 16.25 -3.55 2.30 -10.30 7.85 -13.15 10.80 -2.30 2.40 -5.10 8.35 -4.70 10 0.15 0.60 0.10 1.25 -0.15 1.40 -0.25 0.20 -1.05 1.35 -1.75 2.60 -1.10 1.95 -1.30 2.95 -1.30 6.10 0 4.45 0.80 6.80 5.95 17.35 3.35 6.85 4.65 10.45 6.65 18.50 1.60 6.50 0.70 16.95 -2.30 26.20 -1.50 4.70 -1.80 6.45 -1.80 9.90 0 2.35 0.25 4.70 0.55 5.30 0.35 0.60 2.30 3.70 4.45 6.85 2.10 3.15 4.35 6.75 5 8 1.40 2.85 4.90 7.75 8.55 12.10 4.55 5.50 6.85 9.20 7.45 12.25 0.55 2.45 0.45 3.50 -0.50 8.10 -0.65 2.90 -1.30 6.55 -1.50 8.05 -0.70 5 -4.50 15.45 -8.15 22.50 -3.80 7.25 -5.05 9.20 -7.80 12.15 -3.30 3.50 -9.95 4.85 -14.30 2.85z"/>
 </g>
</svg>